<mxfile host="app.diagrams.net" modified="2023-04-20T13:48:16.127Z" agent="Mozilla/5.0 (X11; Linux x86_64) AppleWebKit/537.36 (KHTML, like Gecko) Chrome/112.0.0.0 Safari/537.36" etag="AcUp-cB4mIDXPWZYsKav" version="21.2.1" type="github">
  <diagram name="Page-1" id="Cl_RyHP-qeL_iuJ1_8LN">
    <mxGraphModel dx="1434" dy="775" grid="1" gridSize="10" guides="1" tooltips="1" connect="1" arrows="1" fold="1" page="1" pageScale="1" pageWidth="850" pageHeight="1100" math="0" shadow="0">
      <root>
        <mxCell id="0" />
        <mxCell id="1" parent="0" />
        <mxCell id="ln6owdjJWBcUK8_FFF5o-1" value="Public Websocket Server" style="image;html=1;image=img/lib/clip_art/computers/Server_128x128.png" vertex="1" parent="1">
          <mxGeometry x="385" y="140" width="80" height="80" as="geometry" />
        </mxCell>
      </root>
    </mxGraphModel>
  </diagram>
</mxfile>
